<svg xmlns="http://www.w3.org/2000/svg" width="1600" height="1200" viewBox="0 0 1600 1200">
  <defs>
    <linearGradient id="wall-f5" x1="0" y1="0" x2="0" y2="1">
      <stop offset="0" stop-color="#6a5647"/><stop offset="1" stop-color="#3a2d24"/>
    </linearGradient>
    <linearGradient id="floor-f5" x1="0" y1="1" x2="0" y2="0">
      <stop offset="0" stop-color="#7c6250"/><stop offset="1" stop-color="#3a2d24"/>
    </linearGradient>
    <radialGradient id="glow-f5" cx="50%" cy="46%" r="60%">
      <stop offset="0" stop-color="#f6e2bd" stop-opacity="0.9"/>
      <stop offset="0.5" stop-color="#0b0b0c" stop-opacity="0.35"/>
      <stop offset="1" stop-color="#0b0b0c" stop-opacity="0"/>
    </radialGradient>
    <radialGradient id="vig-f5" cx="50%" cy="44%" r="75%">
      <stop offset="0.55" stop-color="#000" stop-opacity="0"/>
      <stop offset="1" stop-color="#000" stop-opacity="0.55"/>
    </radialGradient>
    
    <filter id="grain-f5" x="0" y="0" width="100%" height="100%">
      <feTurbulence type="fractalNoise" baseFrequency="0.9" numOctaves="2" stitchTiles="stitch" result="n"/>
      <feColorMatrix in="n" type="matrix" values="0 0 0 0 0  0 0 0 0 0  0 0 0 0 0  0 0 0 0.5 0"/>
      <feComponentTransfer><feFuncA type="linear" slope="0.05"/></feComponentTransfer>
      <feComposite operator="over" in2="SourceGraphic"/>
    </filter>
  </defs>
  <g filter="url(#grain-f5)">
    <rect width="1600" height="1200" fill="url(#wall-f5)"/>
    <!-- ceiling -->
    <polygon points="0,0 1600,0 976,552 624,552" fill="#6a5647" opacity="0.55"/>
    <!-- floor -->
    <polygon points="0,1200 1600,1200 976,1152 624,1152" fill="url(#floor-f5)"/>
    <!-- left wall -->
    <polygon points="0,0 624,552 624,1152 0,1200" fill="#3a2d24" opacity="0.7"/>
    <!-- right wall -->
    <polygon points="1600,0 976,552 976,1152 1600,1200" fill="#3a2d24" opacity="0.85"/>
    <!-- back wall / doorway -->
    <rect x="624" y="552" width="352" height="600" fill="url(#glow-f5)"/>
    <rect x="624" y="552" width="352" height="600" fill="#f6e2bd" opacity="0.14"/>
    <!-- pilasters -->
    <line x1="624" y1="552" x2="624" y2="1152" stroke="#000" stroke-opacity="0.25" stroke-width="2"/>
    <line x1="976" y1="552" x2="976" y2="1152" stroke="#000" stroke-opacity="0.25" stroke-width="2"/>
    <rect x="544" y="816.0000000000001" width="256" height="168.00000000000003" rx="14" fill="#000" opacity="0.28"/>
           <ellipse cx="1008" cy="983.9999999999999" rx="70" ry="18" fill="#000" opacity="0.22"/>
    <rect width="1600" height="1200" fill="url(#vig-f5)"/>
    <rect width="1600" height="1200" fill="url(#glow-f5)" opacity="0.5"/>
  </g>
</svg>